<svg width="111" height="17" viewBox="0 0 111 17" fill="none" xmlns="http://www.w3.org/2000/svg">
<path d="M12.0625 1.625V3L10.8438 3.23438V13H8.57031L3.97656 5.34375L3.92969 5.35156V11.3984L5.14844 11.6328V13H0.4375V11.6328L1.64844 11.3984V3.23438L0.4375 3V1.625H1.64844H3.92969L8.52344 9.28125L8.57031 9.27344V3.23438L7.35156 3V1.625H10.8438H12.0625ZM16.8984 13.1641C15.6797 13.1641 14.7057 12.7734 13.9766 11.9922C13.2474 11.2109 12.8828 10.2188 12.8828 9.01562V8.70312C12.8828 7.44792 13.2266 6.41406 13.9141 5.60156C14.6068 4.78906 15.5339 4.38542 16.6953 4.39062C17.8359 4.39062 18.7214 4.73438 19.3516 5.42188C19.9818 6.10938 20.2969 7.03906 20.2969 8.21094V9.45312H15.25L15.2344 9.5C15.276 10.0573 15.4609 10.5156 15.7891 10.875C16.1224 11.2344 16.5729 11.4141 17.1406 11.4141C17.6458 11.4141 18.0651 11.3646 18.3984 11.2656C18.7318 11.1615 19.0964 11 19.4922 10.7812L20.1094 12.1875C19.7604 12.4635 19.3073 12.6953 18.75 12.8828C18.1979 13.0703 17.5807 13.1641 16.8984 13.1641ZM16.6953 6.14844C16.2734 6.14844 15.9401 6.3099 15.6953 6.63281C15.4505 6.95573 15.2995 7.38021 15.2422 7.90625L15.2656 7.94531H18.0625V7.74219C18.0625 7.25781 17.9479 6.8724 17.7188 6.58594C17.4948 6.29427 17.1536 6.14844 16.6953 6.14844ZM33.4297 5.92188L32.5781 6.03125L30.8125 13H28.9062L27.3359 7.96875H27.2891L25.7188 13H23.8203L22.0469 6.03125L21.1953 5.92188V4.54688H25.0234V5.92188L24.125 6.09375L24.9219 9.96094H24.9688L26.5469 4.54688H28.0781L29.6719 9.97656H29.7188L30.5078 6.10156L29.6016 5.92188V4.54688H33.4297V5.92188ZM41.1094 7.45312H39.5781L39.3359 6.39844C39.1797 6.27344 38.9818 6.16927 38.7422 6.08594C38.5078 6.0026 38.2474 5.96094 37.9609 5.96094C37.5599 5.96094 37.2422 6.05208 37.0078 6.23438C36.7734 6.41146 36.6562 6.63542 36.6562 6.90625C36.6562 7.16146 36.7682 7.375 36.9922 7.54688C37.2161 7.71354 37.6641 7.86198 38.3359 7.99219C39.3828 8.20052 40.1589 8.50781 40.6641 8.91406C41.1693 9.3151 41.4219 9.86979 41.4219 10.5781C41.4219 11.3385 41.0938 11.9609 40.4375 12.4453C39.7865 12.9245 38.9271 13.1641 37.8594 13.1641C37.2083 13.1641 36.6094 13.0703 36.0625 12.8828C35.5208 12.6901 35.0391 12.4167 34.6172 12.0625L34.5938 10.1641H36.1875L36.5 11.2656C36.6354 11.3802 36.8203 11.4661 37.0547 11.5234C37.2891 11.5755 37.5339 11.6016 37.7891 11.6016C38.2526 11.6016 38.6042 11.5182 38.8438 11.3516C39.0885 11.1849 39.2109 10.9583 39.2109 10.6719C39.2109 10.4219 39.0885 10.2057 38.8438 10.0234C38.599 9.84115 38.1484 9.67969 37.4922 9.53906C36.4974 9.33594 35.7448 9.03646 35.2344 8.64062C34.7292 8.23958 34.4766 7.69531 34.4766 7.00781C34.4766 6.29948 34.7682 5.6901 35.3516 5.17969C35.9349 4.66406 36.7656 4.40625 37.8438 4.40625C38.5 4.40625 39.1198 4.49479 39.7031 4.67188C40.2917 4.84896 40.7526 5.07552 41.0859 5.35156L41.1094 7.45312ZM42.2734 11.6328L43.0859 11.5156L46.5469 1.625H48.8828L52.3203 11.5156L53.1328 11.6328V13H49.2578V11.6328L50.0469 11.4922L49.5469 9.92969H45.8594L45.3594 11.4922L46.1484 11.6328V13H42.2734V11.6328ZM46.3984 8.25H49.0078L47.7266 4.24219H47.6797L46.3984 8.25ZM53.8203 11.6328L54.9141 11.3984V6.15625L53.7031 5.92188V4.54688H57.0391L57.1406 5.75781C57.4219 5.32552 57.7682 4.98958 58.1797 4.75C58.5911 4.51042 59.0521 4.39062 59.5625 4.39062C60.4167 4.39062 61.0833 4.65885 61.5625 5.19531C62.0417 5.73177 62.2812 6.57292 62.2812 7.71875V11.3984L63.375 11.6328V13H59.0156V11.6328L59.9922 11.3984V7.72656C59.9922 7.15885 59.8776 6.75781 59.6484 6.52344C59.4193 6.28385 59.0729 6.16406 58.6094 6.16406C58.3073 6.16406 58.0365 6.22656 57.7969 6.35156C57.5573 6.47135 57.3568 6.64323 57.1953 6.86719V11.3984L58.1172 11.6328V13H53.8203V11.6328ZM69.4844 13C69.4219 12.8594 69.3672 12.7161 69.3203 12.5703C69.2734 12.4193 69.237 12.2682 69.2109 12.1172C68.9401 12.4297 68.6094 12.6823 68.2188 12.875C67.8333 13.0677 67.3906 13.1641 66.8906 13.1641C66.0625 13.1641 65.4036 12.9401 64.9141 12.4922C64.4297 12.0391 64.1875 11.4245 64.1875 10.6484C64.1875 9.85677 64.5052 9.24479 65.1406 8.8125C65.776 8.38021 66.7083 8.16406 67.9375 8.16406H69.1016V7.33594C69.1016 6.92969 68.9844 6.61458 68.75 6.39062C68.5156 6.16667 68.1693 6.05469 67.7109 6.05469C67.4505 6.05469 67.2188 6.08594 67.0156 6.14844C66.8125 6.20573 66.6484 6.27604 66.5234 6.35938L66.375 7.26562H64.6562L64.6641 5.39062C65.0807 5.10938 65.5573 4.8724 66.0938 4.67969C66.6354 4.48698 67.224 4.39062 67.8594 4.39062C68.9062 4.39062 69.7552 4.64844 70.4062 5.16406C71.0625 5.67448 71.3906 6.40365 71.3906 7.35156V10.8438C71.3906 10.974 71.3906 11.0964 71.3906 11.2109C71.3958 11.3255 71.4062 11.4349 71.4219 11.5391L72.1172 11.6328V13H69.4844ZM67.5078 11.4766C67.8516 11.4766 68.1641 11.4036 68.4453 11.2578C68.7266 11.1068 68.9453 10.9193 69.1016 10.6953V9.40625H67.9375C67.4531 9.40625 67.0859 9.52083 66.8359 9.75C66.5859 9.97396 66.4609 10.2448 66.4609 10.5625C66.4609 10.849 66.5521 11.0729 66.7344 11.2344C66.9219 11.3958 67.1797 11.4766 67.5078 11.4766ZM72.6562 2.1875V0.8125H76.1562V11.3984L77.2578 11.6328V13H72.7734V11.6328L73.875 11.3984V2.42188L72.6562 2.1875ZM86.7578 5.92188L85.9688 6.03906L82.8594 14.2656C82.6146 14.875 82.2865 15.3854 81.875 15.7969C81.4688 16.2083 80.8542 16.4141 80.0312 16.4141C79.8385 16.4141 79.6562 16.3984 79.4844 16.3672C79.3177 16.3359 79.1198 16.2917 78.8906 16.2344L79.1562 14.5703C79.2292 14.5807 79.3047 14.5911 79.3828 14.6016C79.4609 14.612 79.5286 14.6172 79.5859 14.6172C79.9661 14.6172 80.2578 14.5234 80.4609 14.3359C80.6641 14.1536 80.8203 13.9245 80.9297 13.6484L81.1875 13.0078L78.5078 6.04688L77.7188 5.92188V4.54688H81.8594V5.92188L80.9141 6.07812L82.0703 9.45312L82.1875 10.0625L82.2344 10.0703L83.5703 6.07812L82.6172 5.92188V4.54688H86.7578V5.92188ZM90.5 11.25H92.8594L92.9531 10.125H94.6953V13H87.6719V11.6562L91.6953 6.3125H89.625L89.5391 7.42969H87.7891V4.54688H94.5547V5.85156L90.5 11.25ZM99.7578 13.1641C98.5391 13.1641 97.5651 12.7734 96.8359 11.9922C96.1068 11.2109 95.7422 10.2188 95.7422 9.01562V8.70312C95.7422 7.44792 96.0859 6.41406 96.7734 5.60156C97.4661 4.78906 98.3932 4.38542 99.5547 4.39062C100.695 4.39062 101.581 4.73438 102.211 5.42188C102.841 6.10938 103.156 7.03906 103.156 8.21094V9.45312H98.1094L98.0938 9.5C98.1354 10.0573 98.3203 10.5156 98.6484 10.875C98.9818 11.2344 99.4323 11.4141 100 11.4141C100.505 11.4141 100.924 11.3646 101.258 11.2656C101.591 11.1615 101.956 11 102.352 10.7812L102.969 12.1875C102.62 12.4635 102.167 12.6953 101.609 12.8828C101.057 13.0703 100.44 13.1641 99.7578 13.1641ZM99.5547 6.14844C99.1328 6.14844 98.7995 6.3099 98.5547 6.63281C98.3099 6.95573 98.1589 7.38021 98.1016 7.90625L98.125 7.94531H100.922V7.74219C100.922 7.25781 100.807 6.8724 100.578 6.58594C100.354 6.29427 100.013 6.14844 99.5547 6.14844ZM104.414 11.6328L105.508 11.3984V6.15625L104.297 5.92188V4.54688H107.633L107.734 5.78125C107.932 5.34375 108.188 5.0026 108.5 4.75781C108.812 4.51302 109.174 4.39062 109.586 4.39062C109.706 4.39062 109.831 4.40104 109.961 4.42188C110.096 4.4375 110.208 4.45833 110.297 4.48438L110.055 6.5625L109.117 6.53906C108.784 6.53906 108.508 6.60417 108.289 6.73438C108.07 6.86458 107.904 7.04948 107.789 7.28906V11.3984L108.883 11.6328V13H104.414V11.6328Z" fill="white"/>
</svg>
