<svg width="111" height="17" fill="none" xmlns="http://www.w3.org/2000/svg"><path d="M12.063 1.625V3l-1.22.234V13H8.57L3.977 5.344l-.047.008v6.046l1.218.235V13H.438v-1.367l1.21-.235V3.234L.438 3V1.625H3.93l4.593 7.656.047-.008V3.234L7.352 3V1.625h4.711zm4.835 11.54c-1.218 0-2.192-.392-2.921-1.173-.73-.781-1.094-1.773-1.094-2.976v-.313c0-1.255.344-2.289 1.031-3.101.693-.813 1.62-1.217 2.781-1.211 1.14 0 2.026.343 2.657 1.03.63.688.945 1.618.945 2.79v1.242H15.25l-.016.047c.042.557.227 1.016.555 1.375.333.36.784.54 1.352.54.505 0 .924-.05 1.257-.15a5.982 5.982 0 001.094-.484l.617 1.406c-.349.277-.802.508-1.359.696a5.735 5.735 0 01-1.852.281zm-.203-7.017c-.422 0-.755.162-1 .485-.245.323-.396.747-.453 1.273l.024.04h2.796v-.204c0-.484-.114-.87-.343-1.156-.224-.292-.565-.438-1.024-.438zm16.735-.226l-.852.11L30.812 13h-1.906l-1.57-5.031h-.047L25.72 13h-1.9l-1.773-6.969-.852-.11V4.548h3.828v1.375l-.898.172.797 3.867h.047l1.578-5.414h1.531l1.594 5.43h.047l.789-3.875-.906-.18V4.547h3.828v1.375zm7.68 1.531h-1.532l-.242-1.055a1.989 1.989 0 00-.594-.312 2.32 2.32 0 00-.781-.125c-.401 0-.719.091-.953.273-.235.177-.352.401-.352.672 0 .255.112.469.336.64.224.168.672.316 1.344.446 1.047.209 1.823.516 2.328.922.505.401.758.956.758 1.664 0 .76-.328 1.383-.984 1.867-.652.48-1.51.72-2.579.72-.65 0-1.25-.095-1.797-.282a4.65 4.65 0 01-1.445-.82l-.023-1.899h1.593l.313 1.102c.135.114.32.2.555.257.234.053.479.079.734.079.464 0 .815-.084 1.055-.25a.782.782 0 00.367-.68c0-.25-.122-.466-.367-.649-.245-.182-.696-.343-1.352-.484-.995-.203-1.747-.503-2.258-.898-.505-.401-.757-.946-.757-1.633 0-.709.291-1.318.875-1.828.583-.516 1.414-.774 2.492-.774a6.38 6.38 0 011.86.266c.588.177 1.049.404 1.382.68l.023 2.101zm1.163 4.18l.813-.117 3.46-9.891h2.337l3.437 9.89.813.118V13h-3.875v-1.367l.789-.14-.5-1.563h-3.688l-.5 1.562.79.14V13h-3.876v-1.367zm4.125-3.383h2.61l-1.281-4.008h-.047L46.398 8.25zm7.422 3.383l1.094-.235V6.156l-1.21-.234V4.547h3.335l.102 1.21A3.092 3.092 0 0158.18 4.75c.411-.24.872-.36 1.383-.36.854 0 1.52.269 2 .805.479.537.718 1.378.718 2.524v3.68l1.094.234V13h-4.36v-1.367l.977-.235V7.727c0-.568-.114-.97-.344-1.204-.229-.24-.575-.359-1.039-.359a1.73 1.73 0 00-.812.188c-.24.12-.44.291-.602.515v4.531l.922.235V13H53.82v-1.367zM69.484 13a3.585 3.585 0 01-.273-.883 3.12 3.12 0 01-.992.758c-.386.193-.828.29-1.328.29-.829 0-1.487-.225-1.977-.673-.484-.453-.727-1.068-.727-1.844 0-.791.318-1.403.954-1.835.635-.433 1.567-.649 2.796-.649h1.165v-.828c0-.406-.118-.721-.352-.945-.234-.224-.58-.336-1.04-.336-.26 0-.491.03-.694.093a1.745 1.745 0 00-.493.211l-.148.907h-1.719l.008-1.875a6.425 6.425 0 011.43-.711 5.231 5.231 0 011.765-.29c1.047 0 1.896.258 2.547.774.656.51.985 1.24.985 2.188v3.859c.005.114.015.224.03.328l.696.094V13h-2.633zm-1.976-1.523c.344 0 .656-.073.937-.22.282-.15.5-.338.657-.562V9.406h-1.165c-.484 0-.851.115-1.101.344-.25.224-.375.495-.375.813 0 .286.091.51.273.671.188.162.446.243.774.243zm5.148-9.29V.813h3.5v10.585l1.102.235V13h-4.485v-1.367l1.102-.235V2.422l-1.219-.235zm14.102 3.735l-.79.117-3.109 8.227a4.51 4.51 0 01-.984 1.53c-.406.412-1.02.618-1.844.618-.193 0-.375-.016-.547-.047a10.45 10.45 0 01-.593-.133l.265-1.664.227.032c.078.01.146.015.203.015.38 0 .672-.094.875-.281.203-.182.36-.412.469-.688l.257-.64-2.68-6.961-.788-.125V4.547h4.14v1.375l-.945.156 1.156 3.375.118.61.046.007 1.336-3.992-.953-.156V4.547h4.14v1.375zM90.5 11.25h2.36l.093-1.125h1.742V13h-7.023v-1.344l4.023-5.344h-2.07l-.086 1.118h-1.75V4.547h6.766v1.305L90.5 11.25zm9.258 1.914c-1.219 0-2.193-.39-2.922-1.172-.73-.781-1.094-1.773-1.094-2.976v-.313c0-1.255.344-2.289 1.031-3.101.693-.813 1.62-1.217 2.782-1.211 1.14 0 2.026.343 2.656 1.03.63.688.945 1.618.945 2.79v1.242h-5.047l-.015.047c.041.557.226 1.016.554 1.375.334.36.784.54 1.352.54.505 0 .924-.05 1.258-.15a6.001 6.001 0 001.094-.484l.617 1.406c-.349.277-.802.508-1.36.696a5.732 5.732 0 01-1.851.281zm-.203-7.016c-.422 0-.756.162-1 .485-.245.323-.396.747-.453 1.273l.023.04h2.797v-.204c0-.484-.115-.87-.344-1.156-.224-.292-.565-.438-1.023-.438zm4.859 5.485l1.094-.235V6.156l-1.211-.234V4.547h3.336l.101 1.234c.198-.437.454-.778.766-1.023a1.71 1.71 0 011.086-.367c.12 0 .245.01.375.03.135.016.247.037.336.063l-.242 2.079-.938-.024c-.333 0-.609.065-.828.195a1.26 1.26 0 00-.5.555v4.11l1.094.234V13h-4.469v-1.367z" fill="#fff"/></svg>